<svg width="14" height="13" viewBox="0 0 14 13" fill="none" xmlns="http://www.w3.org/2000/svg">
<g clip-path="url(#clip0_1_93)">
<path d="M6.93349 1.39453C9.73548 1.39453 12.0096 3.66861 12.0096 6.4706C12.0096 9.27258 9.73548 11.5467 6.93349 11.5467C4.1315 11.5467 1.85742 9.27258 1.85742 6.4706C1.85742 3.66861 4.1315 1.39453 6.93349 1.39453ZM6.93349 10.5314C9.17711 10.5314 10.9943 8.71422 10.9943 6.4706C10.9943 4.22698 9.17711 2.40974 6.93349 2.40974C4.68987 2.40974 2.87264 4.22698 2.87264 6.4706C2.87264 8.71422 4.68987 10.5314 6.93349 10.5314ZM8.72838 3.95794L9.44614 4.6757L6.93349 7.18835L6.21573 6.4706L8.72838 3.95794Z" fill="#5C5C5C"/>
</g>
<defs>
<clipPath id="clip0_1_93">
<rect width="12.1826" height="12.1826" fill="white" transform="translate(0.841797 0.379395)"/>
</clipPath>
</defs>
</svg>
