<svg width="13" height="13" viewBox="0 0 13 13" fill="none" xmlns="http://www.w3.org/2000/svg">
<g clip-path="url(#clip0_1_87)">
<path d="M6.9149 11.3518C4.1195 11.3518 1.85352 9.08579 1.85352 6.29039C1.85352 3.49498 4.1195 1.229 6.9149 1.229C9.7103 1.229 11.9763 3.49498 11.9763 6.29039C11.9763 9.08579 9.7103 11.3518 6.9149 11.3518ZM6.9149 10.3395C7.98879 10.3395 9.01869 9.91289 9.77805 9.15354C10.5374 8.39418 10.964 7.36427 10.964 6.29039C10.964 5.2165 10.5374 4.18659 9.77805 3.42724C9.01869 2.66788 7.98879 2.24128 6.9149 2.24128C5.84101 2.24128 4.8111 2.66788 4.05175 3.42724C3.29239 4.18659 2.86579 5.2165 2.86579 6.29039C2.86579 7.36427 3.29239 8.39418 4.05175 9.15354C4.8111 9.91289 5.84101 10.3395 6.9149 10.3395ZM4.38421 6.79652H8.93945V7.8088H6.9149V9.32721L4.38421 6.79652ZM6.9149 4.77197V3.25356L9.44559 5.78425H4.89034V4.77197H6.9149Z" fill="#5C5C5C"/>
</g>
<defs>
<clipPath id="clip0_1_87">
<rect width="12.1473" height="12.1473" fill="white" transform="translate(0.841797 0.216309)"/>
</clipPath>
</defs>
</svg>
