<svg width="16" height="16" viewBox="0 0 16 16" fill="none" xmlns="http://www.w3.org/2000/svg">
<path d="M7.20039 1.44775C6.73985 1.87689 6.37046 2.39439 6.11426 2.96939C5.85806 3.54439 5.7203 4.16509 5.70919 4.79449C5.69809 5.42388 5.81387 6.04906 6.04962 6.63274C6.28538 7.21641 6.63628 7.74663 7.0814 8.19174C7.52652 8.63686 8.05673 8.98776 8.64041 9.22352C9.22408 9.45928 9.84926 9.57506 10.4787 9.56395C11.108 9.55285 11.7288 9.41508 12.3038 9.15888C12.8787 8.90268 13.3963 8.5333 13.8254 8.07275C13.6266 11.3446 10.9104 13.9359 7.58852 13.9359C4.13602 13.9359 1.33789 11.1378 1.33789 7.68588C1.33789 4.364 3.92914 1.64775 7.20039 1.44775Z" fill="#173963"/>
</svg>
