<svg width="13" height="13" viewBox="0 0 13 13" fill="none" xmlns="http://www.w3.org/2000/svg">
<g clip-path="url(#clip0_1_84)">
<path d="M6.9149 11.572C4.1195 11.572 1.85352 9.306 1.85352 6.5106C1.85352 3.7152 4.1195 1.44922 6.9149 1.44922C9.7103 1.44922 11.9763 3.7152 11.9763 6.5106C11.9763 9.306 9.7103 11.572 6.9149 11.572ZM6.9149 10.5597C7.98879 10.5597 9.01869 10.1331 9.77805 9.37375C10.5374 8.6144 10.964 7.58449 10.964 6.5106C10.964 5.43671 10.5374 4.4068 9.77805 3.64745C9.01869 2.8881 7.98879 2.4615 6.9149 2.4615C5.84101 2.4615 4.8111 2.8881 4.05175 3.64745C3.29239 4.4068 2.86579 5.43671 2.86579 6.5106C2.86579 7.58449 3.29239 8.6144 4.05175 9.37375C4.8111 10.1331 5.84101 10.5597 6.9149 10.5597ZM6.40876 3.97991H7.42104V4.99219H6.40876V3.97991ZM6.40876 6.00446H7.42104V9.04129H6.40876V6.00446Z" fill="#5C5C5C"/>
</g>
<defs>
<clipPath id="clip0_1_84">
<rect width="12.1473" height="12.1473" fill="white" transform="translate(0.841797 0.437012)"/>
</clipPath>
</defs>
</svg>
